# xmcd
#
# Track frame offsets:
#	150
#	19828
#	36135
#	52841
#	70096
#	87310
#	101600
#	117127
#	133257
#	148663
#	168707
#	186165
#	203805
#	222665
#	240352
#	258737
#	277906
#	299438
#	315778
#
# Disc length: 4479 seconds
#
# Revision: 1
# Processed by: cddbd v1.4PL0 Copyright (c) Steve Scherf et al.
# Submitted via: audiograbber 1.81.02
#
DISCID=1b117d13
DTITLE=Presuntos Implicados - Los mejores super exitos
DYEAR=2001
DGENRE=Blues
TTITLE0=Gente
TTITLE1=Esta tarde vi llover
TTITLE2=La mujer que mueve el mundo
TTITLE3=La felicidad
TTITLE4=Se que me quieres
TTITLE5=Te recuerdo amanda
TTITLE6=Tu
TTITLE7=Esperare
TTITLE8=Mi unica razon
TTITLE9=Samurai
TTITLE10=Me visitan canciones
TTITLE11=Canciones y momentos
TTITLE12=Dime que no
TTITLE13=Nadie como tu
TTITLE14=La gloria
TTITLE15=Vereda tropical
TTITLE16=calor
TTITLE17=Pecado
TTITLE18=Esta noche
EXTD=
EXTT0=
EXTT1=
EXTT2=
EXTT3=
EXTT4=
EXTT5=
EXTT6=
EXTT7=
EXTT8=
EXTT9=
EXTT10=
EXTT11=
EXTT12=
EXTT13=
EXTT14=
EXTT15=
EXTT16=
EXTT17=
EXTT18=
PLAYORDER=
